<?xml version="1.0" standalone="no"?>
<!DOCTYPE svg PUBLIC "-//W3C//DTD SVG 20010904//EN"
 "http://www.w3.org/TR/2001/REC-SVG-20010904/DTD/svg10.dtd">
<svg version="1.0" xmlns="http://www.w3.org/2000/svg"
 width="224.000000pt" height="224.000000pt" viewBox="0 0 224.000000 224.000000"
 preserveAspectRatio="xMidYMid meet">
<metadata>
Created by potrace 1.11, written by Peter Selinger 2001-2013
</metadata>
<g transform="translate(0.000000,224.000000) scale(0.100000,-0.100000)"
fill="#000000" stroke="none">
<path d="M210 1602 c0 -6 -8 -8 -19 -5 -10 3 -22 0 -25 -6 -10 -16 -13 -91 -3
-91 4 0 5 -5 1 -11 -5 -8 -7 -160 -4 -379 0 -8 0 -109 -1 -225 0 -116 0 -213
1 -217 2 -5 3 -14 4 -20 1 -9 20 -13 61 -13 l60 0 5 395 c5 360 6 391 19 355
8 -22 16 -44 17 -50 2 -5 23 -67 48 -137 24 -71 42 -128 40 -128 -3 0 3 -11
12 -25 9 -14 14 -25 11 -25 -3 0 4 -24 14 -52 11 -29 22 -60 24 -68 2 -8 23
-71 47 -140 l43 -125 53 -1 c49 -1 54 1 63 25 5 14 14 35 19 46 5 11 27 74 50
140 22 66 44 129 49 140 9 19 35 95 36 105 0 3 3 10 6 15 10 17 43 120 41 128
-1 4 3 7 10 7 6 0 8 3 5 7 -4 3 -2 12 4 20 6 7 8 13 4 13 -4 0 -2 6 4 14 7 8
14 25 16 37 8 41 27 79 37 73 5 -3 5 -11 -2 -19 -6 -7 -7 -16 -2 -18 4 -3 6
-36 4 -74 -4 -78 -4 -74 1 -130 2 -24 -1 -43 -6 -43 -4 0 -5 -6 -1 -12 11 -17
11 -228 0 -228 -5 0 -4 -6 1 -12 5 -7 7 -38 6 -68 -4 -69 -1 -134 6 -160 0 -3
27 -6 59 -5 l57 0 3 482 2 481 -45 -1 c-25 -1 -45 1 -45 5 0 4 -13 3 -29 -2
-21 -6 -31 -5 -34 3 -6 16 -34 -51 -83 -193 -21 -63 -43 -118 -47 -121 -5 -3
-8 -9 -8 -13 1 -3 1 -7 0 -8 0 -2 -2 -13 -5 -26 -2 -13 -11 -36 -19 -52 -8
-16 -17 -37 -18 -47 -4 -18 -8 -30 -23 -68 -4 -11 -8 -24 -9 -30 0 -5 -4 -15
-7 -21 -4 -5 -23 -57 -43 -114 -19 -58 -39 -108 -44 -113 -5 -5 -12 5 -16 25
-4 18 -10 38 -13 43 -4 6 -7 15 -9 20 -1 6 -10 33 -21 62 -11 28 -17 54 -14
57 3 3 0 6 -6 6 -7 0 -11 3 -10 8 2 12 -14 66 -25 80 -5 6 -7 12 -4 12 4 0 -2
20 -13 45 -11 25 -17 45 -14 45 2 0 -4 12 -13 27 -10 15 -12 24 -5 19 7 -4 4
8 -7 27 -11 19 -17 37 -15 40 3 3 1 13 -5 24 -6 10 -24 61 -41 113 -47 146
-48 147 -81 152 -16 3 -29 2 -29 -2 0 -8 -55 -4 -69 5 -6 3 -11 2 -11 -3z"/>
<path d="M1283 1583 c-5 -23 -8 -789 -3 -803 1 -3 1 -9 0 -15 -2 -13 -2 -88 0
-97 2 -5 3 -14 4 -20 1 -9 20 -13 61 -13 l60 0 3 169 2 169 76 74 c41 40 79
71 83 69 4 -3 34 -42 66 -88 33 -46 63 -84 67 -86 5 -2 8 -8 8 -13 0 -6 5 -15
10 -22 44 -52 108 -146 103 -151 -4 -3 -1 -6 5 -6 5 0 20 -15 31 -33 44 -72
58 -82 119 -84 32 0 65 1 75 4 16 4 16 7 -5 36 -26 36 -47 63 -66 83 -7 7 -12
16 -11 20 0 3 -7 16 -18 28 -10 12 -34 44 -53 71 -18 28 -36 52 -40 55 -3 3
-23 30 -45 60 -22 30 -44 58 -50 62 -6 5 -6 8 0 8 6 0 6 3 0 8 -6 4 -26 27
-45 52 -19 25 -38 47 -42 48 -5 2 -6 8 -2 13 3 5 0 9 -5 9 -6 0 -11 5 -11 12
0 11 195 207 338 340 28 26 46 50 41 54 -6 3 -13 4 -16 1 -3 -3 -16 -2 -29 3
-13 5 -24 6 -24 2 0 -9 -62 -8 -77 1 -6 4 -114 -97 -242 -223 -127 -127 -233
-230 -236 -230 -2 0 -6 100 -7 223 -3 189 -5 222 -18 222 -8 0 -20 4 -27 8 -6
4 -14 3 -18 -2 -4 -7 -15 -7 -30 -1 -22 8 -26 6 -32 -17z"/>
</g>
</svg>
